<svg xmlns="http://www.w3.org/2000/svg" xmlns:xlink="http://www.w3.org/1999/xlink" viewBox="0 0 118 43" preserveAspectRatio="xMidYMid" style="display: block; shape-rendering: auto; background: transparent;" width="118" height="43"><style type="text/css">
  .ld-text text {
    text-anchor: middle;
    dominant-baseline: middle;
    font-size: 35px;
    opacity: 0;
    user-select: none;
    pointer-events: none;
  }
</style>
<g style="transform-origin:59px 21.5px;transform:scale(1)" class="ld-text">
<g transform="translate(59,21.5)">
  <g transform="scale(0.4375) translate(0,0)"><g class="path" style="opacity: 1; transform-origin: -89.06px 8.59px; transform: matrix3d(1, 0, 0, 0, 0, 1, 0, 0, 0, 0, 1, 0, 0, 0, 0, 1); animation: 0.438596s linear -0.253289s infinite normal forwards running animate-vrq17b6yhkp; transform-box: view-box;"><path d="M18.71-8.64L18.71 43.55L5.51 43.55L5.51-22.35L10.59-22.35L18.71-8.64" style="fill: rgb(255, 255, 255);" transform="translate(-101.170,-21.777)"></path></g><g class="path" style="opacity: 1; transform-origin: -51.05px 13.25px; transform: matrix3d(1, 0, 0, 0, 0, 1, 0, 0, 0, 0, 1, 0, 0, 0, 0, 1); animation: 0.438596s linear -0.217105s infinite normal forwards running animate-vrq17b6yhkp; transform-box: view-box;"><path d="M40.59 22.14L40.59 22.14Q43.01 22.69 45.43 23Q47.85 23.32 50.31 23.32L50.31 23.32Q52.89 23.32 55.10 22.83Q57.30 22.34 58.93 21.19Q60.55 20.03 61.48 18.12Q62.42 16.21 62.42 13.35L62.42 13.35Q62.42 11.05 61.80 9.14Q61.17 7.22 59.94 5.85Q58.71 4.49 56.91 3.73Q55.12 2.96 52.73 2.96L52.73 2.96Q50.51 2.96 48.73 3.78Q46.95 4.60 45.61 5.99Q44.26 7.38 43.30 9.21Q42.34 11.05 41.72 13.04Q41.09 15.03 40.82 17.07Q40.55 19.10 40.55 20.89L40.55 20.89Q40.55 21.21 40.55 21.52Q40.55 21.83 40.59 22.14 zM73.13 13.24L73.13 13.24Q73.13 16.01 72.23 18.18Q71.33 20.35 69.79 21.99Q68.24 23.63 66.21 24.76Q64.18 25.89 61.88 26.62Q59.57 27.34 57.13 27.65Q54.69 27.96 52.38 27.96L52.38 27.96Q49.45 27.96 46.60 27.55Q43.75 27.14 40.98 26.25L40.98 26.25Q41.41 28.82 42.34 31.15Q43.28 33.47 44.84 35.21Q46.41 36.95 48.69 37.96Q50.98 38.98 54.10 38.98L54.10 38.98Q56.17 38.98 58.05 38.35Q59.92 37.73 61.48 36.60Q63.05 35.46 64.24 33.90Q65.43 32.34 66.17 30.42L66.17 30.42L71.88 32.53Q70.59 35.62 68.34 37.87Q66.09 40.11 63.26 41.58Q60.43 43.04 57.25 43.75Q54.06 44.45 50.94 44.45L50.94 44.45Q45.78 44.45 41.41 42.71Q37.03 40.97 33.87 37.85Q30.70 34.72 28.91 30.39Q27.11 26.05 27.11 20.89L27.11 20.89Q27.11 15.74 28.91 11.40Q30.70 7.07 33.87 3.94Q37.03 0.82 41.41-0.92Q45.78-2.66 50.94-2.66L50.94-2.66Q53.44-2.66 56.05-2.31Q58.67-1.96 61.13-1.20Q63.59-0.43 65.78 0.78Q67.97 1.99 69.59 3.76Q71.21 5.54 72.17 7.89Q73.13 10.23 73.13 13.24" style="fill: rgb(255, 255, 255);" transform="translate(-101.170,-21.777)"></path></g><g class="path" style="opacity: 1; transform-origin: -3.74px 12.75px; transform: matrix3d(1, 0, 0, 0, 0, 1, 0, 0, 0, 0, 1, 0, 0, 0, 0, 1); animation: 0.438596s linear -0.180921s infinite normal forwards running animate-vrq17b6yhkp; transform-box: view-box;"><path d="M102.42 18.67L119.77 43.55L106.56 43.55L95.51 27.73L84.22 43.55L75.08 43.55L92.07 22.77L75.08-1.57L88.28-1.57L98.98 13.75L110.63-1.57L119.77-1.57L102.42 18.67" style="fill: rgb(255, 255, 255);" transform="translate(-101.170,-21.777)"></path></g><g class="path" style="opacity: 1; transform-origin: 31.35px -29.9px; transform: matrix3d(1, 0, 0, 0, 0, 1, 0, 0, 0, 0, 1, 0, 0, 0, 0, 1); animation: 0.438596s linear -0.144737s infinite normal forwards running animate-vrq17b6yhkp; transform-box: view-box;"><path d="M139.73-12.47L139.73-12.47Q139.73-10.98 139.16-9.65Q138.59-8.33 137.62-7.35Q136.64-6.37 135.31-5.81Q133.98-5.24 132.50-5.24L132.50-5.24Q131.02-5.24 129.71-5.81Q128.40-6.37 127.42-7.35Q126.45-8.33 125.88-9.65Q125.31-10.98 125.31-12.47L125.31-12.47Q125.31-13.95 125.88-15.26Q126.45-16.57 127.42-17.54Q128.40-18.52 129.71-19.09Q131.02-19.65 132.50-19.65L132.50-19.65Q133.98-19.65 135.31-19.09Q136.64-18.52 137.62-17.54Q138.59-16.57 139.16-15.26Q139.73-13.95 139.73-12.47" style="fill: rgb(255, 255, 255);" transform="translate(-101.170,-21.777)"></path></g><g class="path" style="opacity: 1; transform-origin: 31.35px 12.76px; transform: matrix3d(1, 0, 0, 0, 0, 1, 0, 0, 0, 0, 1, 0, 0, 0, 0, 1); animation: 0.438596s linear -0.108553s infinite normal forwards running animate-vrq17b6yhkp; transform-box: view-box;"><path d="M139.14-1.53L139.14 43.55L125.90 43.55L125.90-1.53L139.14-1.53" style="fill: rgb(255, 255, 255);" transform="translate(-101.170,-21.777)"></path></g><g class="path" style="opacity: 1; transform-origin: 54.73px 20.21px; transform: matrix3d(1, 0, 0, 0, 0, 1, 0, 0, 0, 0, 1, 0, 0, 0, 0, 1); animation: 0.438596s linear -0.0723684s infinite normal forwards running animate-vrq17b6yhkp; transform-box: view-box;"><path d="M163.01 37.69L163.01 37.69Q163.01 39.17 162.46 40.48Q161.91 41.79 160.94 42.75Q159.96 43.71 158.67 44.27Q157.38 44.84 155.90 44.84L155.90 44.84Q154.41 44.84 153.13 44.27Q151.84 43.71 150.86 42.75Q149.88 41.79 149.34 40.48Q148.79 39.17 148.79 37.69L148.79 37.69Q148.79 36.25 149.34 34.94Q149.88 33.63 150.86 32.67Q151.84 31.71 153.13 31.15Q154.41 30.58 155.90 30.58L155.90 30.58Q157.38 30.58 158.67 31.15Q159.96 31.71 160.94 32.67Q161.91 33.63 162.46 34.94Q163.01 36.25 163.01 37.69" style="fill: rgb(255, 255, 255);" transform="translate(-101.170,-21.777)"></path></g><g class="path" style="opacity: 1; transform-origin: 77.15px 20.21px; transform: matrix3d(1, 0, 0, 0, 0, 1, 0, 0, 0, 0, 1, 0, 0, 0, 0, 1); animation: 0.438596s linear -0.0361842s infinite normal forwards running animate-vrq17b6yhkp; transform-box: view-box;"><path d="M185.43 37.69L185.43 37.69Q185.43 39.17 184.88 40.48Q184.34 41.79 183.36 42.75Q182.38 43.71 181.09 44.27Q179.80 44.84 178.32 44.84L178.32 44.84Q176.84 44.84 175.55 44.27Q174.26 43.71 173.28 42.75Q172.30 41.79 171.76 40.48Q171.21 39.17 171.21 37.69L171.21 37.69Q171.21 36.25 171.76 34.94Q172.30 33.63 173.28 32.67Q174.26 31.71 175.55 31.15Q176.84 30.58 178.32 30.58L178.32 30.58Q179.80 30.58 181.09 31.15Q182.38 31.71 183.36 32.67Q184.34 33.63 184.88 34.94Q185.43 36.25 185.43 37.69" style="fill: rgb(255, 255, 255);" transform="translate(-101.170,-21.777)"></path></g><g class="path" style="opacity: 1; transform-origin: 99.57px 20.21px; transform: matrix3d(1, 0, 0, 0, 0, 1, 0, 0, 0, 0, 1, 0, 0, 0, 0, 1); animation: 0.438596s linear 0s infinite normal forwards running animate-vrq17b6yhkp; transform-box: view-box;"><path d="M207.85 37.69L207.85 37.69Q207.85 39.17 207.30 40.48Q206.76 41.79 205.78 42.75Q204.80 43.71 203.52 44.27Q202.23 44.84 200.74 44.84L200.74 44.84Q199.26 44.84 197.97 44.27Q196.68 43.71 195.70 42.75Q194.73 41.79 194.18 40.48Q193.63 39.17 193.63 37.69L193.63 37.69Q193.63 36.25 194.18 34.94Q194.73 33.63 195.70 32.67Q196.68 31.71 197.97 31.15Q199.26 30.58 200.74 30.58L200.74 30.58Q202.23 30.58 203.52 31.15Q204.80 31.71 205.78 32.67Q206.76 33.63 207.30 34.94Q207.85 36.25 207.85 37.69" style="fill: rgb(255, 255, 255);" transform="translate(-101.170,-21.777)"></path></g></g><text dy="0.35em" fill="#ffffff" font-family="Aclonica" font-size="35">lexi...</text>
</g>
</g><style type="text/css">@keyframes animate-vrq17b6yhkp { 0.00% {transform: translate(0.00px,0.00px) rotate(0.00deg) scale(1.00, 1.00) skew(0deg, 0.00deg) ;opacity: 1.00;}2.00% {animation-timing-function: cubic-bezier(0.20,0.39,0.50,0.97);transform: translate(0.00px,-1.08px) rotate(0.00deg) ;}36.00% {animation-timing-function: cubic-bezier(0.50,0.03,0.80,0.61);transform: translate(0.00px,-10.00px) rotate(0.00deg) ;}72.00% {transform: translate(0.00px,0.00px) rotate(0.00deg) ;}74.00% {animation-timing-function: cubic-bezier(0.23,0.43,0.48,0.91);transform: translate(0.00px,0.00px) rotate(0.00deg) scale(1.00, 0.95) ;}86.00% {animation-timing-function: cubic-bezier(0.52,0.09,0.77,0.57);transform: translate(0.00px,0.00px) rotate(0.00deg) scale(1.00, 0.80) ;}100.00% {animation-timing-function: cubic-bezier(0.52,0.09,0.77,0.57);transform: translate(0.00px,0.00px) rotate(0.00deg) scale(1.00, 1.00) ;} }</style><!-- [ldio] generated by https://loading.io --></svg>